<?xml version="1.0" encoding="UTF-8" standalone="no"?>
<!DOCTYPE svg PUBLIC "-//W3C//DTD SVG 1.1//EN" "http://www.w3.org/Graphics/SVG/1.1/DTD/svg11.dtd">
<!-- 由 Microsoft Visio, SVG Export 生成 1x1.svg 页-1 -->
<svg xmlns="http://www.w3.org/2000/svg" xmlns:xlink="http://www.w3.org/1999/xlink" xmlns:ev="http://www.w3.org/2001/xml-events"
		xmlns:v="http://schemas.microsoft.com/visio/2003/SVGExtensions/" width="13.0412in" height="5.20691in"
		viewBox="0 0 938.967 374.898" xml:space="preserve" color-interpolation-filters="sRGB" class="st14">
	<v:documentProperties v:langID="2052" v:metric="true" v:viewMarkup="false"/>

	<style type="text/css">
	<![CDATA[
		.st1 {fill:none;stroke:none;stroke-width:0.25}
		.st2 {fill:#000000;font-family:Calibri;font-size:4.99999em}
		.st3 {fill:#000000;font-family:Calibri;font-size:3em}
		.st4 {fill:#000000;font-family:Calibri;font-size:1.99999em}
		.st5 {visibility:visible}
		.st6 {fill:#5b9bd5;fill-opacity:0.22;filter:url(#filter_2);stroke:#5b9bd5;stroke-opacity:0.22}
		.st7 {fill:#e2efd9;stroke:#000000;stroke-width:1}
		.st8 {fill:#fff2cc;stroke:#000000;stroke-width:1}
		.st9 {fill:#fbe5d5;stroke:#000000;stroke-width:1}
		.st10 {fill:#f4b183;stroke:#000000;stroke-width:0.5}
		.st11 {fill:#ffd965;stroke:#000000;stroke-width:0.5}
		.st12 {fill:#a8d08d;stroke:#000000;stroke-width:0.5}
		.st13 {stroke:#000000;stroke-dasharray:0.25,0.5;stroke-linecap:round;stroke-linejoin:round;stroke-width:0.25}
		.st14 {fill:none;fill-rule:evenodd;font-size:12px;overflow:visible;stroke-linecap:square;stroke-miterlimit:3}
	]]>
	</style>

	<defs id="Filters">
		<filter id="filter_2">
			<feGaussianBlur stdDeviation="2"/>
		</filter>
	</defs>
	<g v:mID="0" v:index="1" v:groupContext="foregroundPage">
		<title>页-1</title>
		<v:pageProperties v:drawingScale="0.0393701" v:pageScale="0.0393701" v:drawingUnits="24" v:shadowOffsetX="8.50394"
				v:shadowOffsetY="-8.50394"/>
		<g id="shape110-1" v:mID="110" v:groupContext="shape" transform="translate(309.027,-170.306)">
			<title>工作表.110</title>
			<desc>=</desc>
			<v:textBlock v:margins="rect(4,4,4,4)" v:tabSpace="42.5197"/>
			<v:textRect cx="22.7769" cy="364.898" width="45.56" height="20"/>
			<rect x="0" y="354.898" width="45.5538" height="20" class="st1"/>
			<text x="7.84" y="382.9" class="st2" v:langID="1033"><v:paragraph v:horizAlign="1"/><v:tabList/>=</text>		</g>
		<g id="shape111-4" v:mID="111" v:groupContext="shape" transform="translate(599.578,-170.306)">
			<title>工作表.111</title>
			<desc>×</desc>
			<v:textBlock v:margins="rect(4,4,4,4)" v:tabSpace="42.5197"/>
			<v:textRect cx="22.7769" cy="364.898" width="45.56" height="20"/>
			<rect x="0" y="354.898" width="45.5538" height="20" class="st1"/>
			<text x="7.84" y="382.9" class="st2" v:langID="1033"><v:paragraph v:horizAlign="1"/><v:tabList/>×</text>		</g>
		<g id="shape112-7" v:mID="112" v:groupContext="shape" transform="translate(473.536,-343.298)">
			<title>工作表.112</title>
			<desc>A</desc>
			<v:textBlock v:margins="rect(4,4,4,4)" v:tabSpace="42.5197"/>
			<v:textRect cx="22.7769" cy="364.898" width="45.56" height="20"/>
			<rect x="0" y="354.898" width="45.5538" height="20" class="st1"/>
			<text x="12.36" y="375.7" class="st3" v:langID="2052"><v:paragraph v:horizAlign="1"/><v:tabList/>A</text>		</g>
		<g id="shape113-10" v:mID="113" v:groupContext="shape" transform="translate(757.001,-302.038)">
			<title>工作表.113</title>
			<desc>B</desc>
			<v:textBlock v:margins="rect(4,4,4,4)" v:tabSpace="42.5197"/>
			<v:textRect cx="22.7769" cy="364.898" width="45.56" height="20"/>
			<rect x="0" y="354.898" width="45.5538" height="20" class="st1"/>
			<text x="12.99" y="375.7" class="st3" v:langID="2052"><v:paragraph v:horizAlign="1"/><v:tabList/>B</text>		</g>
		<g id="shape114-13" v:mID="114" v:groupContext="shape" transform="translate(147.552,-343.298)">
			<title>工作表.114</title>
			<desc>C</desc>
			<v:textBlock v:margins="rect(4,4,4,4)" v:tabSpace="42.5197"/>
			<v:textRect cx="22.7769" cy="364.898" width="45.56" height="20"/>
			<rect x="0" y="354.898" width="45.5538" height="20" class="st1"/>
			<text x="13.18" y="375.7" class="st3" v:langID="2052"><v:paragraph v:horizAlign="1"/><v:tabList/>C</text>		</g>
		<g id="shape115-16" v:mID="115" v:groupContext="shape" transform="translate(0.25,-170.306)">
			<title>工作表.115</title>
			<desc>M</desc>
			<v:textBlock v:margins="rect(4,4,4,4)" v:tabSpace="42.5197"/>
			<v:textRect cx="22.7769" cy="364.898" width="45.56" height="20"/>
			<rect x="0" y="354.898" width="45.5538" height="20" class="st1"/>
			<text x="12.52" y="372.1" class="st4" v:langID="2052"><v:paragraph v:horizAlign="1"/><v:tabList/>M</text>		</g>
		<g id="shape116-19" v:mID="116" v:groupContext="shape" transform="translate(147.552,-4.40009)">
			<title>工作表.116</title>
			<desc>N</desc>
			<v:textBlock v:margins="rect(4,4,4,4)" v:tabSpace="42.5197"/>
			<v:textRect cx="22.7769" cy="364.898" width="45.56" height="20"/>
			<rect x="0" y="354.898" width="45.5538" height="20" class="st1"/>
			<text x="15.03" y="372.1" class="st4" v:langID="2052"><v:paragraph v:horizAlign="1"/><v:tabList/>N</text>		</g>
		<g id="shape117-22" v:mID="117" v:groupContext="shape" transform="translate(757.001,-66.9198)">
			<title>工作表.117</title>
			<desc>N</desc>
			<v:textBlock v:margins="rect(4,4,4,4)" v:tabSpace="42.5197"/>
			<v:textRect cx="22.7769" cy="364.898" width="45.56" height="20"/>
			<rect x="0" y="354.898" width="45.5538" height="20" class="st1"/>
			<text x="15.03" y="372.1" class="st4" v:langID="2052"><v:paragraph v:horizAlign="1"/><v:tabList/>N</text>		</g>
		<g id="shape118-25" v:mID="118" v:groupContext="shape" transform="translate(473.536,-4.40009)">
			<title>工作表.118</title>
			<desc>K</desc>
			<v:textBlock v:margins="rect(4,4,4,4)" v:tabSpace="42.5197"/>
			<v:textRect cx="22.7769" cy="364.898" width="45.56" height="20"/>
			<rect x="0" y="354.898" width="45.5538" height="20" class="st1"/>
			<text x="16.54" y="372.1" class="st4" v:langID="2052"><v:paragraph v:horizAlign="1"/><v:tabList/>K</text>		</g>
		<g id="shape119-28" v:mID="119" v:groupContext="shape" transform="translate(893.163,-170.306)">
			<title>工作表.119</title>
			<desc>K</desc>
			<v:textBlock v:margins="rect(4,4,4,4)" v:tabSpace="42.5197"/>
			<v:textRect cx="22.7769" cy="364.898" width="45.56" height="20"/>
			<rect x="0" y="354.898" width="45.5538" height="20" class="st1"/>
			<text x="16.54" y="372.1" class="st4" v:langID="2052"><v:paragraph v:horizAlign="1"/><v:tabList/>K</text>		</g>
		<g id="shape120-31" v:mID="120" v:groupContext="shape" transform="translate(368.754,-129.046)">
			<title>工作表.120</title>
			<desc>M</desc>
			<v:textBlock v:margins="rect(4,4,4,4)" v:tabSpace="42.5197"/>
			<v:textRect cx="22.7769" cy="364.898" width="45.56" height="20"/>
			<rect x="0" y="354.898" width="45.5538" height="20" class="st1"/>
			<text x="12.52" y="372.1" class="st4" v:langID="2052"><v:paragraph v:horizAlign="1"/><v:tabList/>M</text>		</g>
		<g id="shape122-34" v:mID="122" v:groupContext="shape" transform="translate(669.426,-98.8095)">
			<title>矩形.2</title>
			<v:userDefs>
				<v:ud v:nameU="visVersion" v:val="VT0(15):26"/>
			</v:userDefs>
			<g id="shadow122-35" v:groupContext="shadow" v:shadowOffsetX="0.345598" v:shadowOffsetY="-1.97279" v:shadowType="1"
					transform="matrix(1,0,0,1,0.345598,1.97279)" class="st5">
				<rect x="0" y="204.819" width="226.772" height="170.079" class="st6"/>
			</g>
			<rect x="0" y="204.819" width="226.772" height="170.079" class="st7"/>
		</g>
		<g id="shape150-39" v:mID="150" v:groupContext="shape" transform="translate(414.308,-42.1166)">
			<title>矩形.150</title>
			<v:userDefs>
				<v:ud v:nameU="visVersion" v:val="VT0(15):26"/>
			</v:userDefs>
			<g id="shadow150-40" v:groupContext="shadow" v:shadowOffsetX="0.345598" v:shadowOffsetY="-1.97279" v:shadowType="1"
					transform="matrix(1,0,0,1,0.345598,1.97279)" class="st5">
				<rect x="0" y="91.4331" width="170.079" height="283.465" class="st6"/>
			</g>
			<rect x="0" y="91.4331" width="170.079" height="283.465" class="st8"/>
		</g>
		<g id="shape182-44" v:mID="182" v:groupContext="shape" transform="translate(59.977,-42.1166)">
			<title>矩形.4</title>
			<v:userDefs>
				<v:ud v:nameU="visVersion" v:val="VT0(15):26"/>
			</v:userDefs>
			<g id="shadow182-45" v:groupContext="shadow" v:shadowOffsetX="0.345598" v:shadowOffsetY="-1.97279" v:shadowType="1"
					transform="matrix(1,0,0,1,0.345598,1.97279)" class="st5">
				<rect x="0" y="91.4331" width="226.772" height="283.465" class="st6"/>
			</g>
			<rect x="0" y="91.4331" width="226.772" height="283.465" class="st9"/>
		</g>
		<g id="shape217-49" v:mID="217" v:groupContext="shape" transform="translate(116.67,-254.715)">
			<title>正方形</title>
			<v:userDefs>
				<v:ud v:nameU="visVersion" v:val="VT0(15):26"/>
			</v:userDefs>
			<rect x="0" y="360.724" width="14.1732" height="14.1732" class="st10"/>
		</g>
		<g id="shape221-51" v:mID="221" v:groupContext="shape" transform="translate(414.308,-254.715)">
			<title>矩形.221</title>
			<v:userDefs>
				<v:ud v:nameU="visVersion" v:val="VT0(15):26"/>
			</v:userDefs>
			<rect x="0" y="360.724" width="170.079" height="14.1732" class="st11"/>
		</g>
		<g id="shape222-53" v:mID="222" v:groupContext="shape" transform="translate(1101.02,106.009) rotate(90)">
			<title>矩形.222</title>
			<v:userDefs>
				<v:ud v:nameU="visVersion" v:val="VT0(15):26"/>
			</v:userDefs>
			<rect x="0" y="360.724" width="170.079" height="14.1732" class="st12"/>
		</g>
		<g id="group223-55" transform="translate(669.426,-98.8095)" v:mID="223" v:groupContext="group">
			<title>工作表.223</title>
			<g id="shape123-56" v:mID="123" v:groupContext="shape" transform="translate(-247.339,374.898) rotate(-90)">
				<title>工作表.123</title>
				<path d="M0 374.9 L170.08 374.9" class="st13"/>
			</g>
			<g id="shape124-59" v:mID="124" v:groupContext="shape" transform="translate(-233.165,374.898) rotate(-90)">
				<title>工作表.124</title>
				<path d="M0 374.9 L170.08 374.9" class="st13"/>
			</g>
			<g id="shape125-62" v:mID="125" v:groupContext="shape" transform="translate(-261.512,374.898) rotate(-90)">
				<title>工作表.125</title>
				<path d="M0 374.9 L170.08 374.9" class="st13"/>
			</g>
			<g id="shape126-65" v:mID="126" v:groupContext="shape" transform="translate(-289.858,374.898) rotate(-90)">
				<title>工作表.126</title>
				<path d="M0 374.9 L170.08 374.9" class="st13"/>
			</g>
			<g id="shape127-68" v:mID="127" v:groupContext="shape" transform="translate(-275.685,374.898) rotate(-90)">
				<title>工作表.127</title>
				<path d="M0 374.9 L170.08 374.9" class="st13"/>
			</g>
			<g id="shape128-71" v:mID="128" v:groupContext="shape" transform="translate(-304.031,374.898) rotate(-90)">
				<title>工作表.128</title>
				<path d="M0 374.9 L170.08 374.9" class="st13"/>
			</g>
			<g id="shape129-74" v:mID="129" v:groupContext="shape" transform="translate(-332.378,374.898) rotate(-90)">
				<title>工作表.129</title>
				<path d="M0 374.9 L170.08 374.9" class="st13"/>
			</g>
			<g id="shape130-77" v:mID="130" v:groupContext="shape" transform="translate(-318.205,374.898) rotate(-90)">
				<title>工作表.130</title>
				<path d="M0 374.9 L170.08 374.9" class="st13"/>
			</g>
			<g id="shape131-80" v:mID="131" v:groupContext="shape" transform="translate(-346.551,374.898) rotate(-90)">
				<title>工作表.131</title>
				<path d="M0 374.9 L170.08 374.9" class="st13"/>
			</g>
			<g id="shape132-83" v:mID="132" v:groupContext="shape" transform="translate(-360.724,374.898) rotate(-90)">
				<title>工作表.132</title>
				<path d="M0 374.9 L170.08 374.9" class="st13"/>
			</g>
			<g id="shape133-86" v:mID="133" v:groupContext="shape" transform="translate(-190.646,374.898) rotate(-90)">
				<title>工作表.133</title>
				<path d="M0 374.9 L170.08 374.9" class="st13"/>
			</g>
			<g id="shape134-89" v:mID="134" v:groupContext="shape" transform="translate(-176.472,374.898) rotate(-90)">
				<title>工作表.134</title>
				<path d="M0 374.9 L170.08 374.9" class="st13"/>
			</g>
			<g id="shape135-92" v:mID="135" v:groupContext="shape" transform="translate(-204.819,374.898) rotate(-90)">
				<title>工作表.135</title>
				<path d="M0 374.9 L170.08 374.9" class="st13"/>
			</g>
			<g id="shape136-95" v:mID="136" v:groupContext="shape" transform="translate(-218.992,374.898) rotate(-90)">
				<title>工作表.136</title>
				<path d="M0 374.9 L170.08 374.9" class="st13"/>
			</g>
			<g id="shape137-98" v:mID="137" v:groupContext="shape" transform="translate(-162.299,374.898) rotate(-90)">
				<title>工作表.137</title>
				<path d="M0 374.9 L170.08 374.9" class="st13"/>
			</g>
			<g id="shape138-101" v:mID="138" v:groupContext="shape" transform="translate(226.772,608.063) rotate(180)">
				<title>工作表.138</title>
				<path d="M0 374.9 L226.77 374.9" class="st13"/>
			</g>
			<g id="shape139-104" v:mID="139" v:groupContext="shape" transform="translate(226.772,593.89) rotate(180)">
				<title>工作表.139</title>
				<path d="M0 374.9 L226.77 374.9" class="st13"/>
			</g>
			<g id="shape140-107" v:mID="140" v:groupContext="shape" transform="translate(226.772,622.236) rotate(180)">
				<title>工作表.140</title>
				<path d="M0 374.9 L226.77 374.9" class="st13"/>
			</g>
			<g id="shape141-110" v:mID="141" v:groupContext="shape" transform="translate(226.772,650.583) rotate(180)">
				<title>工作表.141</title>
				<path d="M0 374.9 L226.77 374.9" class="st13"/>
			</g>
			<g id="shape142-113" v:mID="142" v:groupContext="shape" transform="translate(226.772,636.409) rotate(180)">
				<title>工作表.142</title>
				<path d="M0 374.9 L226.77 374.9" class="st13"/>
			</g>
			<g id="shape143-116" v:mID="143" v:groupContext="shape" transform="translate(226.772,664.756) rotate(180)">
				<title>工作表.143</title>
				<path d="M0 374.9 L226.77 374.9" class="st13"/>
			</g>
			<g id="shape144-119" v:mID="144" v:groupContext="shape" transform="translate(226.772,693.102) rotate(180)">
				<title>工作表.144</title>
				<path d="M0 374.9 L226.77 374.9" class="st13"/>
			</g>
			<g id="shape145-122" v:mID="145" v:groupContext="shape" transform="translate(226.772,678.929) rotate(180)">
				<title>工作表.145</title>
				<path d="M0 374.9 L226.77 374.9" class="st13"/>
			</g>
			<g id="shape146-125" v:mID="146" v:groupContext="shape" transform="translate(226.772,707.276) rotate(180)">
				<title>工作表.146</title>
				<path d="M0 374.9 L226.77 374.9" class="st13"/>
			</g>
			<g id="shape147-128" v:mID="147" v:groupContext="shape" transform="translate(226.772,721.449) rotate(180)">
				<title>工作表.147</title>
				<path d="M0 374.9 L226.77 374.9" class="st13"/>
			</g>
			<g id="shape148-131" v:mID="148" v:groupContext="shape" transform="translate(226.772,735.622) rotate(180)">
				<title>工作表.148</title>
				<path d="M0 374.9 L226.77 374.9" class="st13"/>
			</g>
		</g>
		<g id="group224-134" transform="translate(414.308,-42.1166)" v:mID="224" v:groupContext="group">
			<title>工作表.224</title>
			<g id="shape151-135" v:mID="151" v:groupContext="shape" transform="translate(170.079,494.677) rotate(180)">
				<title>工作表.151</title>
				<path d="M0 374.9 L170.08 374.9" class="st13"/>
			</g>
			<g id="shape152-138" v:mID="152" v:groupContext="shape" transform="translate(170.079,480.504) rotate(180)">
				<title>工作表.152</title>
				<path d="M0 374.9 L170.08 374.9" class="st13"/>
			</g>
			<g id="shape153-141" v:mID="153" v:groupContext="shape" transform="translate(170.079,508.85) rotate(180)">
				<title>工作表.153</title>
				<path d="M0 374.9 L170.08 374.9" class="st13"/>
			</g>
			<g id="shape154-144" v:mID="154" v:groupContext="shape" transform="translate(170.079,537.197) rotate(180)">
				<title>工作表.154</title>
				<path d="M0 374.9 L170.08 374.9" class="st13"/>
			</g>
			<g id="shape155-147" v:mID="155" v:groupContext="shape" transform="translate(170.079,523.024) rotate(180)">
				<title>工作表.155</title>
				<path d="M0 374.9 L170.08 374.9" class="st13"/>
			</g>
			<g id="shape156-150" v:mID="156" v:groupContext="shape" transform="translate(170.079,551.37) rotate(180)">
				<title>工作表.156</title>
				<path d="M0 374.9 L170.08 374.9" class="st13"/>
			</g>
			<g id="shape157-153" v:mID="157" v:groupContext="shape" transform="translate(170.079,579.717) rotate(180)">
				<title>工作表.157</title>
				<path d="M0 374.9 L170.08 374.9" class="st13"/>
			</g>
			<g id="shape158-156" v:mID="158" v:groupContext="shape" transform="translate(170.079,565.543) rotate(180)">
				<title>工作表.158</title>
				<path d="M0 374.9 L170.08 374.9" class="st13"/>
			</g>
			<g id="shape159-159" v:mID="159" v:groupContext="shape" transform="translate(170.079,593.89) rotate(180)">
				<title>工作表.159</title>
				<path d="M0 374.9 L170.08 374.9" class="st13"/>
			</g>
			<g id="shape160-162" v:mID="160" v:groupContext="shape" transform="translate(170.079,622.236) rotate(180)">
				<title>工作表.160</title>
				<path d="M0 374.9 L170.08 374.9" class="st13"/>
			</g>
			<g id="shape161-165" v:mID="161" v:groupContext="shape" transform="translate(170.079,608.063) rotate(180)">
				<title>工作表.161</title>
				<path d="M0 374.9 L170.08 374.9" class="st13"/>
			</g>
			<g id="shape162-168" v:mID="162" v:groupContext="shape" transform="translate(170.079,636.409) rotate(180)">
				<title>工作表.162</title>
				<path d="M0 374.9 L170.08 374.9" class="st13"/>
			</g>
			<g id="shape163-171" v:mID="163" v:groupContext="shape" transform="translate(170.079,664.756) rotate(180)">
				<title>工作表.163</title>
				<path d="M0 374.9 L170.08 374.9" class="st13"/>
			</g>
			<g id="shape164-174" v:mID="164" v:groupContext="shape" transform="translate(170.079,650.583) rotate(180)">
				<title>工作表.164</title>
				<path d="M0 374.9 L170.08 374.9" class="st13"/>
			</g>
			<g id="shape165-177" v:mID="165" v:groupContext="shape" transform="translate(170.079,678.929) rotate(180)">
				<title>工作表.165</title>
				<path d="M0 374.9 L170.08 374.9" class="st13"/>
			</g>
			<g id="shape166-180" v:mID="166" v:groupContext="shape" transform="translate(170.079,707.276) rotate(180)">
				<title>工作表.166</title>
				<path d="M0 374.9 L170.08 374.9" class="st13"/>
			</g>
			<g id="shape167-183" v:mID="167" v:groupContext="shape" transform="translate(170.079,693.102) rotate(180)">
				<title>工作表.167</title>
				<path d="M0 374.9 L170.08 374.9" class="st13"/>
			</g>
			<g id="shape168-186" v:mID="168" v:groupContext="shape" transform="translate(170.079,721.449) rotate(180)">
				<title>工作表.168</title>
				<path d="M0 374.9 L170.08 374.9" class="st13"/>
			</g>
			<g id="shape169-189" v:mID="169" v:groupContext="shape" transform="translate(170.079,735.622) rotate(180)">
				<title>工作表.169</title>
				<path d="M0 374.9 L170.08 374.9" class="st13"/>
			</g>
			<g id="shape170-192" v:mID="170" v:groupContext="shape" transform="translate(-247.339,374.898) rotate(-90)">
				<title>工作表.170</title>
				<path d="M0 374.9 L283.46 374.9" class="st13"/>
			</g>
			<g id="shape171-195" v:mID="171" v:groupContext="shape" transform="translate(-233.165,374.898) rotate(-90)">
				<title>工作表.171</title>
				<path d="M0 374.9 L283.46 374.9" class="st13"/>
			</g>
			<g id="shape172-198" v:mID="172" v:groupContext="shape" transform="translate(-261.512,374.898) rotate(-90)">
				<title>工作表.172</title>
				<path d="M0 374.9 L283.46 374.9" class="st13"/>
			</g>
			<g id="shape173-201" v:mID="173" v:groupContext="shape" transform="translate(-289.858,374.898) rotate(-90)">
				<title>工作表.173</title>
				<path d="M0 374.9 L283.46 374.9" class="st13"/>
			</g>
			<g id="shape174-204" v:mID="174" v:groupContext="shape" transform="translate(-275.685,374.898) rotate(-90)">
				<title>工作表.174</title>
				<path d="M0 374.9 L283.46 374.9" class="st13"/>
			</g>
			<g id="shape175-207" v:mID="175" v:groupContext="shape" transform="translate(-304.031,374.898) rotate(-90)">
				<title>工作表.175</title>
				<path d="M0 374.9 L283.46 374.9" class="st13"/>
			</g>
			<g id="shape176-210" v:mID="176" v:groupContext="shape" transform="translate(-332.378,374.898) rotate(-90)">
				<title>工作表.176</title>
				<path d="M0 374.9 L283.46 374.9" class="st13"/>
			</g>
			<g id="shape177-213" v:mID="177" v:groupContext="shape" transform="translate(-318.205,374.898) rotate(-90)">
				<title>工作表.177</title>
				<path d="M0 374.9 L283.46 374.9" class="st13"/>
			</g>
			<g id="shape178-216" v:mID="178" v:groupContext="shape" transform="translate(-346.551,374.898) rotate(-90)">
				<title>工作表.178</title>
				<path d="M0 374.9 L283.46 374.9" class="st13"/>
			</g>
			<g id="shape179-219" v:mID="179" v:groupContext="shape" transform="translate(-360.724,374.898) rotate(-90)">
				<title>工作表.179</title>
				<path d="M0 374.9 L283.46 374.9" class="st13"/>
			</g>
			<g id="shape180-222" v:mID="180" v:groupContext="shape" transform="translate(-218.992,374.898) rotate(-90)">
				<title>工作表.180</title>
				<path d="M0 374.9 L283.46 374.9" class="st13"/>
			</g>
		</g>
		<g id="group225-225" transform="translate(59.977,-42.1166)" v:mID="225" v:groupContext="group">
			<title>工作表.225</title>
			<g id="shape183-226" v:mID="183" v:groupContext="shape" transform="translate(226.772,494.677) rotate(180)">
				<title>工作表.183</title>
				<path d="M0 374.9 L226.77 374.9" class="st13"/>
			</g>
			<g id="shape184-229" v:mID="184" v:groupContext="shape" transform="translate(226.772,480.504) rotate(180)">
				<title>工作表.184</title>
				<path d="M0 374.9 L226.77 374.9" class="st13"/>
			</g>
			<g id="shape185-232" v:mID="185" v:groupContext="shape" transform="translate(226.772,508.85) rotate(180)">
				<title>工作表.185</title>
				<path d="M0 374.9 L226.77 374.9" class="st13"/>
			</g>
			<g id="shape186-235" v:mID="186" v:groupContext="shape" transform="translate(226.772,537.197) rotate(180)">
				<title>工作表.186</title>
				<path d="M0 374.9 L226.77 374.9" class="st13"/>
			</g>
			<g id="shape187-238" v:mID="187" v:groupContext="shape" transform="translate(226.772,523.024) rotate(180)">
				<title>工作表.187</title>
				<path d="M0 374.9 L226.77 374.9" class="st13"/>
			</g>
			<g id="shape188-241" v:mID="188" v:groupContext="shape" transform="translate(226.772,551.37) rotate(180)">
				<title>工作表.188</title>
				<path d="M0 374.9 L226.77 374.9" class="st13"/>
			</g>
			<g id="shape189-244" v:mID="189" v:groupContext="shape" transform="translate(226.772,579.717) rotate(180)">
				<title>工作表.189</title>
				<path d="M0 374.9 L226.77 374.9" class="st13"/>
			</g>
			<g id="shape190-247" v:mID="190" v:groupContext="shape" transform="translate(226.772,565.543) rotate(180)">
				<title>工作表.190</title>
				<path d="M0 374.9 L226.77 374.9" class="st13"/>
			</g>
			<g id="shape191-250" v:mID="191" v:groupContext="shape" transform="translate(226.772,593.89) rotate(180)">
				<title>工作表.191</title>
				<path d="M0 374.9 L226.77 374.9" class="st13"/>
			</g>
			<g id="shape192-253" v:mID="192" v:groupContext="shape" transform="translate(226.772,622.236) rotate(180)">
				<title>工作表.192</title>
				<path d="M0 374.9 L226.77 374.9" class="st13"/>
			</g>
			<g id="shape193-256" v:mID="193" v:groupContext="shape" transform="translate(226.772,608.063) rotate(180)">
				<title>工作表.193</title>
				<path d="M0 374.9 L226.77 374.9" class="st13"/>
			</g>
			<g id="shape194-259" v:mID="194" v:groupContext="shape" transform="translate(226.772,636.409) rotate(180)">
				<title>工作表.194</title>
				<path d="M0 374.9 L226.77 374.9" class="st13"/>
			</g>
			<g id="shape195-262" v:mID="195" v:groupContext="shape" transform="translate(226.772,664.756) rotate(180)">
				<title>工作表.195</title>
				<path d="M0 374.9 L226.77 374.9" class="st13"/>
			</g>
			<g id="shape196-265" v:mID="196" v:groupContext="shape" transform="translate(226.772,650.583) rotate(180)">
				<title>工作表.196</title>
				<path d="M0 374.9 L226.77 374.9" class="st13"/>
			</g>
			<g id="shape197-268" v:mID="197" v:groupContext="shape" transform="translate(226.772,678.929) rotate(180)">
				<title>工作表.197</title>
				<path d="M0 374.9 L226.77 374.9" class="st13"/>
			</g>
			<g id="shape198-271" v:mID="198" v:groupContext="shape" transform="translate(226.772,707.276) rotate(180)">
				<title>工作表.198</title>
				<path d="M0 374.9 L226.77 374.9" class="st13"/>
			</g>
			<g id="shape199-274" v:mID="199" v:groupContext="shape" transform="translate(226.772,693.102) rotate(180)">
				<title>工作表.199</title>
				<path d="M0 374.9 L226.77 374.9" class="st13"/>
			</g>
			<g id="shape200-277" v:mID="200" v:groupContext="shape" transform="translate(226.772,721.449) rotate(180)">
				<title>工作表.200</title>
				<path d="M0 374.9 L226.77 374.9" class="st13"/>
			</g>
			<g id="shape201-280" v:mID="201" v:groupContext="shape" transform="translate(226.772,735.622) rotate(180)">
				<title>工作表.201</title>
				<path d="M0 374.9 L226.77 374.9" class="st13"/>
			</g>
			<g id="shape202-283" v:mID="202" v:groupContext="shape" transform="translate(-247.339,374.898) rotate(-90)">
				<title>工作表.202</title>
				<path d="M0 374.9 L283.46 374.9" class="st13"/>
			</g>
			<g id="shape203-286" v:mID="203" v:groupContext="shape" transform="translate(-233.165,374.898) rotate(-90)">
				<title>工作表.203</title>
				<path d="M0 374.9 L283.46 374.9" class="st13"/>
			</g>
			<g id="shape204-289" v:mID="204" v:groupContext="shape" transform="translate(-261.512,374.898) rotate(-90)">
				<title>工作表.204</title>
				<path d="M0 374.9 L283.46 374.9" class="st13"/>
			</g>
			<g id="shape205-292" v:mID="205" v:groupContext="shape" transform="translate(-289.858,374.898) rotate(-90)">
				<title>工作表.205</title>
				<path d="M0 374.9 L283.46 374.9" class="st13"/>
			</g>
			<g id="shape206-295" v:mID="206" v:groupContext="shape" transform="translate(-275.685,374.898) rotate(-90)">
				<title>工作表.206</title>
				<path d="M0 374.9 L283.46 374.9" class="st13"/>
			</g>
			<g id="shape207-298" v:mID="207" v:groupContext="shape" transform="translate(-304.031,374.898) rotate(-90)">
				<title>工作表.207</title>
				<path d="M0 374.9 L283.46 374.9" class="st13"/>
			</g>
			<g id="shape208-301" v:mID="208" v:groupContext="shape" transform="translate(-332.378,374.898) rotate(-90)">
				<title>工作表.208</title>
				<path d="M0 374.9 L283.46 374.9" class="st13"/>
			</g>
			<g id="shape209-304" v:mID="209" v:groupContext="shape" transform="translate(-318.205,374.898) rotate(-90)">
				<title>工作表.209</title>
				<path d="M0 374.9 L283.46 374.9" class="st13"/>
			</g>
			<g id="shape210-307" v:mID="210" v:groupContext="shape" transform="translate(-346.551,374.898) rotate(-90)">
				<title>工作表.210</title>
				<path d="M0 374.9 L283.46 374.9" class="st13"/>
			</g>
			<g id="shape211-310" v:mID="211" v:groupContext="shape" transform="translate(-360.724,374.898) rotate(-90)">
				<title>工作表.211</title>
				<path d="M0 374.9 L283.46 374.9" class="st13"/>
			</g>
			<g id="shape212-313" v:mID="212" v:groupContext="shape" transform="translate(-190.646,374.898) rotate(-90)">
				<title>工作表.212</title>
				<path d="M0 374.9 L283.46 374.9" class="st13"/>
			</g>
			<g id="shape213-316" v:mID="213" v:groupContext="shape" transform="translate(-176.472,374.898) rotate(-90)">
				<title>工作表.213</title>
				<path d="M0 374.9 L283.46 374.9" class="st13"/>
			</g>
			<g id="shape214-319" v:mID="214" v:groupContext="shape" transform="translate(-204.819,374.898) rotate(-90)">
				<title>工作表.214</title>
				<path d="M0 374.9 L283.46 374.9" class="st13"/>
			</g>
			<g id="shape215-322" v:mID="215" v:groupContext="shape" transform="translate(-218.992,374.898) rotate(-90)">
				<title>工作表.215</title>
				<path d="M0 374.9 L283.46 374.9" class="st13"/>
			</g>
			<g id="shape216-325" v:mID="216" v:groupContext="shape" transform="translate(-162.299,374.898) rotate(-90)">
				<title>工作表.216</title>
				<path d="M0 374.9 L283.46 374.9" class="st13"/>
			</g>
		</g>
	</g>
</svg>
